<svg id="Groupe_855" data-name="Groupe 855" xmlns="http://www.w3.org/2000/svg" xmlns:xlink="http://www.w3.org/1999/xlink" width="23.845" height="23.845" viewBox="0 0 23.845 23.845">
  <defs>
    <clipPath id="clip-path">
      <rect id="Rectangle_1659" data-name="Rectangle 1659" width="23.845" height="23.845" fill="#103a3a"/>
    </clipPath>
  </defs>
  <g id="Groupe_857" data-name="Groupe 857" clip-path="url(#clip-path)">
    <path id="Tracé_1153" data-name="Tracé 1153" d="M20.176,0H3.669A3.679,3.679,0,0,0,0,3.669V20.176a3.679,3.679,0,0,0,3.669,3.669H20.176a3.679,3.679,0,0,0,3.669-3.669V3.669A3.679,3.679,0,0,0,20.176,0M9.544,9.659H3.471V3.392H9.544Zm10.83,6.109H3.471V12.892h16.9Zm-5.941,5.011H3.471V18.334H14.433ZM20.105,6.267h-8.1V3.392h8.1Zm0,3.391h-8.1V7.845h8.1Z" fill="#103a3a"/>
  </g>
</svg>
