<svg xmlns="http://www.w3.org/2000/svg" xmlns:xlink="http://www.w3.org/1999/xlink" width="33.001" height="33" viewBox="0 0 33.001 33">
  <defs>
    <clipPath id="clip-path">
      <rect id="Rectangle_1687" data-name="Rectangle 1687" width="33.001" height="33" fill="none"/>
    </clipPath>
  </defs>
  <g id="Groupe_895" data-name="Groupe 895" transform="translate(0 0)">
    <g id="Groupe_894" data-name="Groupe 894" transform="translate(0 0)" clip-path="url(#clip-path)">
      <path id="Tracé_1209" data-name="Tracé 1209" d="M33,22.154a4.006,4.006,0,0,0-6.445-3.185V2.892h.394a.413.413,0,0,0,.413-.413V.413A.412.412,0,0,0,26.95,0H6.217A.412.412,0,0,0,5.8.413V2.48a.412.412,0,0,0,.413.413h.246v16.09a4.011,4.011,0,1,0-2.877,7.162L3.574,30.1H.413A.412.412,0,0,0,0,30.511v2.077A.412.412,0,0,0,.413,33H32.588A.412.412,0,0,0,33,32.587V30.51a.412.412,0,0,0-.413-.413H29.373l.012-3.951A4.018,4.018,0,0,0,33,22.154Zm-4.014-3.188a3.187,3.187,0,0,1,.4,6.349l.005-1.6,1.1-1.138A.412.412,0,0,0,29.9,22l-.5.52,0-1.13a.412.412,0,0,0-.411-.414h0a.412.412,0,0,0-.413.411l0,1.182-.55-.57a.413.413,0,1,0-.594.573l1.14,1.18,0,1.552a3.186,3.186,0,0,1,.425-6.344ZM6.7,30.1V28.772H26.538V30.1ZM6.63.825H26.538V2.067H6.63Zm19.1,2.067V19.818a3.986,3.986,0,0,0,0,4.673v3.457H7.288v-3.48a3.987,3.987,0,0,0,0-4.626V2.892ZM.826,22.153a3.188,3.188,0,1,1,3.588,3.161l.005-1.6,1.1-1.138A.412.412,0,0,0,4.926,22l-.5.52,0-1.131a.413.413,0,0,0-.411-.414h0a.412.412,0,0,0-.413.411l0,1.183-.55-.569a.412.412,0,1,0-.593.573l1.14,1.18L3.59,25.311A3.192,3.192,0,0,1,.826,22.154Zm3.586,3.994a3.993,3.993,0,0,0,2.051-.821v2.621H6.292a.412.412,0,0,0-.413.413V30.1H4.4Zm27.764,6.028H.826V30.923h31.35ZM27.362,30.1V28.359a.412.412,0,0,0-.413-.413h-.394V25.339a3.99,3.99,0,0,0,2,.805L28.548,30.1Z" transform="translate(0 0)" fill="#103a3a"/>
      <path id="Tracé_1210" data-name="Tracé 1210" d="M26.7,50.464h2.072a.412.412,0,0,0,.413-.413V47.9a1.449,1.449,0,0,0-2.9,0v2.147A.414.414,0,0,0,26.7,50.464Zm.413-2.56a.624.624,0,1,1,1.247,0v1.735H27.108Z" transform="translate(-17.51 -30.951)" fill="#103a3a"/>
      <path id="Tracé_1211" data-name="Tracé 1211" d="M26.7,34.752h2.072a.412.412,0,0,0,.413-.413V32.192a1.449,1.449,0,0,0-2.9,0v2.147A.413.413,0,0,0,26.7,34.752Zm.413-2.56a.624.624,0,1,1,1.247,0v1.735H27.108Z" transform="translate(-17.51 -20.483)" fill="#103a3a"/>
      <path id="Tracé_1212" data-name="Tracé 1212" d="M26.7,66.112h2.072a.412.412,0,0,0,.413-.413V63.552a1.449,1.449,0,0,0-2.9,0V65.7A.413.413,0,0,0,26.7,66.112Zm.413-2.56a.624.624,0,1,1,1.247,0v1.735H27.108Z" transform="translate(-17.51 -41.376)" fill="#103a3a"/>
      <path id="Tracé_1213" data-name="Tracé 1213" d="M26.7,18.946h2.072a.412.412,0,0,0,.413-.413V16.386a1.449,1.449,0,0,0-2.9,0v2.147A.414.414,0,0,0,26.7,18.946Zm.413-2.56a.624.624,0,1,1,1.247,0v1.735H27.108Z" transform="translate(-17.51 -9.952)" fill="#103a3a"/>
      <path id="Tracé_1214" data-name="Tracé 1214" d="M39.24,50.464h2.072a.412.412,0,0,0,.413-.413V47.9a1.449,1.449,0,1,0-2.9,0v2.147A.413.413,0,0,0,39.24,50.464Zm.413-2.56a.624.624,0,0,1,1.248,0v1.735H39.653V47.9Z" transform="translate(-25.868 -30.951)" fill="#103a3a"/>
      <path id="Tracé_1215" data-name="Tracé 1215" d="M39.24,34.752h2.072a.412.412,0,0,0,.413-.413V32.192a1.449,1.449,0,1,0-2.9,0v2.147A.413.413,0,0,0,39.24,34.752Zm.413-2.56a.624.624,0,1,1,1.248,0v1.735H39.653V32.192Z" transform="translate(-25.868 -20.483)" fill="#103a3a"/>
      <path id="Tracé_1216" data-name="Tracé 1216" d="M39.24,66.112h2.072a.412.412,0,0,0,.413-.413V63.552a1.449,1.449,0,1,0-2.9,0V65.7A.412.412,0,0,0,39.24,66.112Zm.413-2.56a.624.624,0,0,1,1.248,0v1.735H39.653V63.552Z" transform="translate(-25.868 -41.376)" fill="#103a3a"/>
      <path id="Tracé_1217" data-name="Tracé 1217" d="M39.24,18.946h2.072a.412.412,0,0,0,.413-.413V16.386a1.449,1.449,0,1,0-2.9,0v2.147A.413.413,0,0,0,39.24,18.946Zm.413-2.56a.624.624,0,0,1,1.248,0v1.735H39.653V16.386Z" transform="translate(-25.868 -9.952)" fill="#103a3a"/>
      <path id="Tracé_1218" data-name="Tracé 1218" d="M51.782,50.464h2.072a.412.412,0,0,0,.413-.413V47.9a1.449,1.449,0,1,0-2.9,0v2.147A.413.413,0,0,0,51.782,50.464Zm.412-2.56a.624.624,0,0,1,1.248,0v1.735H52.2V47.9Z" transform="translate(-34.224 -30.951)" fill="#103a3a"/>
      <path id="Tracé_1219" data-name="Tracé 1219" d="M51.782,34.752h2.072a.412.412,0,0,0,.413-.413V32.192a1.449,1.449,0,0,0-2.9,0v2.147A.413.413,0,0,0,51.782,34.752Zm.412-2.56a.624.624,0,1,1,1.248,0v1.735H52.2V32.192Z" transform="translate(-34.224 -20.483)" fill="#103a3a"/>
      <path id="Tracé_1220" data-name="Tracé 1220" d="M51.782,66.112h2.072a.412.412,0,0,0,.413-.413V63.552a1.449,1.449,0,1,0-2.9,0V65.7A.413.413,0,0,0,51.782,66.112Zm.412-2.56a.624.624,0,0,1,1.248,0v1.735H52.2V63.552Z" transform="translate(-34.224 -41.376)" fill="#103a3a"/>
      <path id="Tracé_1221" data-name="Tracé 1221" d="M51.782,18.946h2.072a.412.412,0,0,0,.413-.413V16.386a1.449,1.449,0,1,0-2.9,0v2.147A.413.413,0,0,0,51.782,18.946Zm.412-2.56a.624.624,0,0,1,1.248,0v1.735H52.2V16.386Z" transform="translate(-34.224 -9.952)" fill="#103a3a"/>
      <path id="Tracé_1222" data-name="Tracé 1222" d="M64.33,50.464H66.4a.412.412,0,0,0,.413-.413V47.9a1.449,1.449,0,1,0-2.9,0v2.147A.413.413,0,0,0,64.33,50.464Zm.413-2.56a.624.624,0,0,1,1.248,0v1.735H64.743V47.9Z" transform="translate(-42.584 -30.951)" fill="#103a3a"/>
      <path id="Tracé_1223" data-name="Tracé 1223" d="M64.33,34.752H66.4a.412.412,0,0,0,.413-.413V32.192a1.449,1.449,0,1,0-2.9,0v2.147A.413.413,0,0,0,64.33,34.752Zm.413-2.56a.624.624,0,1,1,1.248,0v1.735H64.743V32.192Z" transform="translate(-42.584 -20.483)" fill="#103a3a"/>
      <path id="Tracé_1224" data-name="Tracé 1224" d="M64.33,66.112H66.4a.412.412,0,0,0,.413-.413V63.552a1.449,1.449,0,1,0-2.9,0V65.7A.412.412,0,0,0,64.33,66.112Zm.413-2.56a.624.624,0,0,1,1.248,0v1.735H64.743V63.552Z" transform="translate(-42.584 -41.376)" fill="#103a3a"/>
      <path id="Tracé_1225" data-name="Tracé 1225" d="M64.33,18.946H66.4a.412.412,0,0,0,.413-.413V16.386a1.449,1.449,0,1,0-2.9,0v2.147A.413.413,0,0,0,64.33,18.946Zm.413-2.56a.624.624,0,0,1,1.248,0v1.735H64.743V16.386Z" transform="translate(-42.584 -9.952)" fill="#103a3a"/>
    </g>
  </g>
</svg>
