<svg id="Groupe_874" data-name="Groupe 874" xmlns="http://www.w3.org/2000/svg" xmlns:xlink="http://www.w3.org/1999/xlink" width="58.977" height="63.371" viewBox="0 0 58.977 63.371">
  <defs>
    <clipPath id="clip-path">
      <rect id="Rectangle_1681" data-name="Rectangle 1681" width="58.977" height="63.371" fill="none"/>
    </clipPath>
  </defs>
  <g id="Groupe_873" data-name="Groupe 873" clip-path="url(#clip-path)">
    <path id="Tracé_1175" data-name="Tracé 1175" d="M58.967,63.261H51.5c.436-1.767.958-3.488,1.28-5.246,2.528-13.8-.431-26.251-9.352-37.137a24.567,24.567,0,0,0-9.021-7.064,13.6,13.6,0,0,0-5.448-1.385A15.229,15.229,0,0,0,22.1,14.415a5.542,5.542,0,0,0-2.525,3.053A9.451,9.451,0,0,1,18.247,20.4,9.839,9.839,0,0,1,15.4,21.927c-1.075.54-2.157,1.066-3.228,1.615a3.4,3.4,0,0,0-1.358,5.2c.868,1.324,1.789,2.615,2.619,3.962a1.713,1.713,0,0,0,1.966,1,.669.669,0,0,1,.219.019c-2.6,3.771-5.014,7.614-6.242,12.075a29.486,29.486,0,0,0,.2,16.716q.1.338.19.681c.01.04-.019.089-.04.175H.012v-.733Q.012,40.384,0,18.131a1.006,1.006,0,0,1,.571-1Q14.742,8.685,28.892.2A1.011,1.011,0,0,1,30.1.2Q44.273,8.642,58.471,17.046a.894.894,0,0,1,.506.89q-.018,22.36-.01,44.72v.605" transform="translate(0 0)" fill="#103a3a"/>
    <path id="Tracé_1176" data-name="Tracé 1176" d="M40.905,52.186c1.48-.141,2.906-.3,4.335-.4a1.444,1.444,0,0,0,1.332-.879c.31-.663.665-1.305.973-1.969a1.129,1.129,0,0,0-.464-1.579,1.117,1.117,0,0,0-1.547.547.269.269,0,0,0-.034.061c-.341,1.419-1.335,1.716-2.664,1.791-2.9.163-5.785.473-8.674.753a.846.846,0,0,1-.978-.46c-.247-.455-.565-.871-.885-1.356a4.97,4.97,0,0,0,2.077-5.451c1.06-.533,2.116-1.092,3.2-1.6a2.16,2.16,0,0,0,1.191-1.312c.361-1,.768-1.981,1.169-2.965a3.563,3.563,0,0,1,1.984-2.114c1.3-.5,2.631-.893,3.961-1.294a.748.748,0,0,1,.662.169c1.49,2.1,3.072,4.173,3.354,6.85.123,1.171.058,2.362.085,3.543a5.7,5.7,0,0,0,4.884,5.509,5.621,5.621,0,0,0,6.218-4.11,19.619,19.619,0,0,0,.32-2.678A42.539,42.539,0,0,1,67.235,82.45c-2.627,0-5.246.01-7.864-.024-.156,0-.412-.327-.446-.532a11.625,11.625,0,0,0-5.556-8.329A6.279,6.279,0,0,0,51.6,72.7c-1.151-.272-1.613-1.233-2.263-2.012-.086-.1-.032-.4.048-.556a4.684,4.684,0,0,0-.4-5.081,4.556,4.556,0,0,1-.535-1.8A7.862,7.862,0,0,0,43.7,56.992c-.75-.343-1.461-.777-2.221-1.095a.857.857,0,0,1-.579-.976c.033-.894.01-1.789.01-2.735m15.878,3.068c-.529-.572-.911-1.024-1.333-1.434a4.5,4.5,0,1,0-6.316,6.412q3.29,3.324,6.606,6.622c.764.764,1.3.774,2.051.027,2.223-2.22,4.449-4.437,6.656-6.673A4.5,4.5,0,1,0,58.135,53.8c-.44.422-.831.894-1.352,1.459" transform="translate(-18.218 -19.145)" fill="#103a3a"/>
    <path id="Tracé_1177" data-name="Tracé 1177" d="M43.182,96.87c.746,1.852,2.457,2.284,3.987,3.051A9.029,9.029,0,0,1,52,106.316c.051.224.059.458.1.755h-.753q-12.4,0-24.792.017c-.6,0-.8-.2-.961-.732a27.352,27.352,0,0,1,3.18-23.9c.356-.556.671-1.139,1-1.714a6.164,6.164,0,0,1,4.295-3.113c0,1.044.024,2.025-.008,3a1.4,1.4,0,0,0,.886,1.456c1.193.567,2.364,1.18,3.546,1.769a5.469,5.469,0,0,1,3.088,4.15,12.857,12.857,0,0,0,.339,1.665,5.648,5.648,0,0,0,.683,1.433,2.122,2.122,0,0,1,.3,2.331c-1.084,1.939-2.689,3.449-5.229,3.4a5.02,5.02,0,0,1-3.286-1.3c-.231-.2-.434-.436-.669-.633a1.114,1.114,0,0,0-1.592.023,1.084,1.084,0,0,0-.025,1.54,7.445,7.445,0,0,0,6.649,2.587,7.7,7.7,0,0,0,4.439-2.181" transform="translate(-13.638 -43.79)" fill="#103a3a"/>
  </g>
</svg>
