<?xml version="1.0" encoding="UTF-8"?><svg xmlns="http://www.w3.org/2000/svg" viewBox="0 0 527.62 527.62"><defs><style>.d{fill:none;stroke-width:15px;}.d,.e{stroke:#fff;stroke-miterlimit:10;}.e{fill:#fff;stroke-width:7px;}</style></defs><g id="a"/><g id="b"><g id="c"><g><path class="e" d="M226.14,365.1c-3.7-41.85,2.32-97.42,6.66-97.13,12.37,.84,49.01,69.29,69.89,71.61,9.53,1.06,32.17,.3,39.13,.3s63.12-83.04,71.91-81.18c9.58,2.02,9.57,105.54,9.57,105.54,0,0,12.57,26.84,0,73.07-4.27,15.72-1.61,31.03,1.17,25.83,.13-.25-4.33,3.35-6,5-10.98,10.85-89.22,46.52-139,48-15.78,.47-35.13,5.84-36-4-3-34-17.68-45.89-20-83-.75-11.95,3.83-50.98,2.68-64.03Z"/><path class="d" d="M325.58,284.21s27.81-56.44,16.24-55.67c-34.79,2.32-41.75,2.32-71.91,2.32-16.28,0-24.24-54.46-39.43-60.31-30.15-11.6-39.45-9.26-41.75-11.6-6.27-6.38-2.32-46.39-18.56-113.66-46.39,2.32-67.56,110.74-83.5,150.77-6.87,17.25-12.35,48.5-18.56,71.91-18.44,69.59-23.08,78.86-23.08,129.9"/><path class="e" d="M465.47,420.13c-8,7,42.47-120.6-16.91-222.08-9.5-16.24-38.17-65.06-30.63-81.3,3.54-7.62,10.53-12.6,21.75-9.69,11.79,3.07,66.19,72.97,77.79,168.07-10,71-34.43,129.63-52,145Z"/><circle class="d" cx="263.81" cy="263.81" r="256.31"/></g></g></g></svg>