<svg xmlns="http://www.w3.org/2000/svg" viewBox="0 0 519.95 519.77"><defs><style>.cls-1,.cls-4{stroke:#000;}.cls-1,.cls-2,.cls-3,.cls-4{stroke-miterlimit:10;stroke-width:7px;}.cls-2{fill:#fff;}.cls-2,.cls-3{stroke:#fff;}.cls-3,.cls-4{fill:none;}</style></defs><g id="Calque_2" data-name="Calque 2"><g id="Calque_1-2" data-name="Calque 1"><circle class="cls-1" cx="259.81" cy="259.81" r="256.31"/><path class="cls-2" d="M222.47,361.24c-3.7-41.85,2.32-97.42,6.66-97.13,12.37.85,49,69.3,69.89,71.61,9.52,1.06,32.17.3,39.13.3s63.12-83,71.9-81.18c9.58,2,9.58,105.53,9.58,105.53s12.56,26.84,0,73.07c-4.27,15.72-1.61,31,1.17,25.83a60.87,60.87,0,0,0-6,5c-11,10.85-89.22,46.52-139,48-15.78.47-35.13,5.84-36-4-3-34-17.68-45.89-20-83C219.05,413.32,223.63,374.29,222.47,361.24Z"/><path class="cls-3" d="M321.91,280.35s27.81-56.44,16.24-55.67C303.35,227,296.4,227,266.24,227,250,227,242,172.54,226.81,166.69c-30.15-11.59-39.45-9.26-41.75-11.59-6.27-6.38-2.32-46.4-18.56-113.66C120.11,43.76,99,152.18,83,192.21c-6.88,17.24-12.36,48.5-18.56,71.9C46,333.7,41.36,343,41.36,394"/><path class="cls-2" d="M461.8,416.27c-8,7,42.46-120.6-16.91-222.08-9.5-16.24-38.17-65.06-30.63-81.3,3.54-7.62,10.53-12.61,21.75-9.69,11.79,3.07,66.19,73,77.79,168.07C503.8,342.27,479.37,400.9,461.8,416.27Z"/><circle class="cls-4" cx="260.14" cy="259.95" r="256.31"/></g></g></svg>