<svg xmlns="http://www.w3.org/2000/svg" xmlns:xlink="http://www.w3.org/1999/xlink" width="60" height="60" viewBox="0 0 60 60">
  <defs>
    <clipPath id="clip-path">
      <rect id="Rectangle_1689" data-name="Rectangle 1689" width="41.113" height="38.694" transform="translate(265.628 4.478)" fill="none"/>
    </clipPath>
  </defs>
  <g id="Groupe_888" data-name="Groupe 888" transform="translate(-5318 -2563)">
    <g id="Rectangle_1697" data-name="Rectangle 1697" transform="translate(5318 2563)" fill="#103a3a" stroke="#1c393a" stroke-width="1">
      <rect width="60" height="60" rx="30" stroke="none"/>
      <rect x="0.5" y="0.5" width="59" height="59" rx="29.5" fill="none"/>
    </g>
    <g id="Groupe_885" data-name="Groupe 885" transform="translate(5061.372 2569.522)" clip-path="url(#clip-path)">
      <path id="Tracé_1217" data-name="Tracé 1217" d="M306.582,32.26l-1.4-.882a3.5,3.5,0,0,0-1.763-.54l-1.972-1.315a.344.344,0,0,0-.5.132,1.875,1.875,0,0,0,.608,2.379l-.719.958a5.409,5.409,0,0,1-1.308-1.176,7.416,7.416,0,0,1-.836-1.309,8.1,8.1,0,0,0-3.942-3.767l-.889-.4a7.366,7.366,0,0,1-3.771-3.8l-.5-1.154-.01-.021a1.52,1.52,0,0,0-2.052-.639c-.024.012-.047.025-.07.039l-4.719-3.154-.744-5.2a2.488,2.488,0,0,0-2.221-2.12.343.343,0,0,0-.1-.008h-.008v-.061a2.663,2.663,0,0,0-.786-1.9,2,2,0,0,1-.585-1.412V6.878a2.4,2.4,0,0,0-2.4-2.4,2.347,2.347,0,0,0-.392.032,3.856,3.856,0,0,0-2.778,2.006A2.715,2.715,0,0,1,271,7.878l-.336.087a4.19,4.19,0,0,0-1.919,1.1l-.249.249a1.917,1.917,0,0,1-.751.464,2.608,2.608,0,0,0-1.783,2.475V16.1a.342.342,0,0,0,.341.343h1.724l.006,2.819a2.917,2.917,0,0,0,.707,1.9l.6.693a28.053,28.053,0,0,1-1.963,8.8l-.7,1.763a.344.344,0,0,0,.192.446.339.339,0,0,0,.22.011l1.543-.44a7.75,7.75,0,0,1,.864-.193l-2.833,5.531-.93.93a.343.343,0,0,0,0,.485l3.877,3.877a.343.343,0,0,0,.578-.309l-.46-2.3,4.031-7.7a7.646,7.646,0,0,1,.806.4,8.4,8.4,0,0,0,3.053,1.031v8.641a.344.344,0,0,0,.343.343h5.483a.343.343,0,0,0,.19-.628l-1.9-1.27V34.263h.343a.344.344,0,0,0,.343-.343,27.15,27.15,0,0,0-3.34-13.027l-.41-.748.342-2.734.17,1.1a2.931,2.931,0,0,0,1.189,1.926l5.563,3.961.01.009.038.027a1.03,1.03,0,0,0,1.435-.243l0,0,1.049-1.489a1.029,1.029,0,0,0-.248-1.433l-.022-.015-.011-.007h.083a.82.82,0,0,1,.7.437l.5,1.142a8.055,8.055,0,0,0,4.121,4.151l.889.395a7.4,7.4,0,0,1,3.607,3.446,8.109,8.109,0,0,0,.914,1.43,6.085,6.085,0,0,0,1.435,1.3l-.027.037h-5.14a2.9,2.9,0,0,0-1.859.677,5.676,5.676,0,0,1-3.149-1.134l-1.127-.847a.343.343,0,0,0-.5.45l.293.488a6.357,6.357,0,0,0,3.473,2.779.6.6,0,0,1-.014.085l-.35,2.45L289.4,40.5a.343.343,0,0,0-.137.274v2.056a.344.344,0,0,0,.343.343h1.37a.342.342,0,0,0,.242-.1,1.313,1.313,0,0,0,.241-1.524l1.68-1.12a2.311,2.311,0,0,0,.235-.025v.028a.348.348,0,0,0,.045.17l1.371,2.4a.341.341,0,0,0,.3.173h1.371a.344.344,0,0,0,.343-.343v-.685a1.028,1.028,0,0,0-.8-1l-.5-1a2.7,2.7,0,0,0,.617-1.711v-.059l3.454.628a3.238,3.238,0,0,0,.573.051h.084v.163l-1.9,1.269a.34.34,0,0,0-.153.285V42.83a.344.344,0,0,0,.343.343h1.364a.342.342,0,0,0,.242-.1,1.31,1.31,0,0,0,.242-1.524l1.21-.807.029.116a.343.343,0,0,0,.09.159l2.056,2.056a.342.342,0,0,0,.242.1h1.371a.344.344,0,0,0,.343-.343v-.685a1.028,1.028,0,0,0-.875-1.017l-1.2-1.2-.4-3.242a3.087,3.087,0,0,0,.078-.38l.292-2.045h1.739a1.028,1.028,0,0,0,.942-.616l.42-.96a.341.341,0,0,0-.127-.425M278.84,14.423a.34.34,0,0,0-.187.264l-.648,5.183h-5.171L271.8,18.712V12.164a1.879,1.879,0,0,0-.434-1.2h2.824v.343a1.028,1.028,0,0,0,2.056,0v-.346H279.4l.33,1.649a1.66,1.66,0,0,1-.887,1.814Zm-2.893-5.167h-.015a1.11,1.11,0,0,1-.181-.034.343.343,0,0,0-.193.656V11.3a.343.343,0,0,1-.685.037.234.234,0,0,1,0-.037V8.32a.342.342,0,0,0-.342-.342h0a.343.343,0,1,1,.256-.57.343.343,0,0,0,.256.115.365.365,0,0,0,.057,0,1.345,1.345,0,0,0,1.084-.94.671.671,0,0,1,.4.614V8.749a.515.515,0,0,1-.514.514.966.966,0,0,1-.12-.007m-7.226,10-.016-7.09a1.2,1.2,0,0,1,2.406,0v6.679a.346.346,0,0,0,.087.229l4.354,4.866a.343.343,0,0,0,.377.092l.758-.286a.211.211,0,0,1-.071.231l-.283.221a.342.342,0,0,0-.06.48l.007.009.338.408a.342.342,0,0,1-.022.461l-1.435,1.432a.347.347,0,0,1-.255.1.338.338,0,0,1-.247-.119l-5.4-6.259a2.226,2.226,0,0,1-.541-1.45Zm.555,20.575-1.917-1.913,2.945-5.761c.146-.008.291-.013.436-.013a7.678,7.678,0,0,1,2.368.374Zm11.764,1.281H278.3V34.251c.141.007.282.012.423.012h2.318ZM279.85,18.4l-.537-3.46a2.348,2.348,0,0,0,1.086-2.462l-.283-1.417a1.805,1.805,0,0,1,1.2,1.448l.766,5.357a.343.343,0,0,0,.149.237l4.428,2.959a1.22,1.22,0,0,0-.478.518l-.63,1.309a1.215,1.215,0,0,0-.1.327l-4.691-3.338a2.238,2.238,0,0,1-.909-1.473Zm8.052,3.9-1.049,1.489a.342.342,0,0,1-.478.082h0l-.038-.027a.531.531,0,0,1-.171-.665l.63-1.309a.526.526,0,0,1,.34-.283.536.536,0,0,1,.143-.02.523.523,0,0,1,.294.09l.24.16a.343.343,0,0,1,.094.476l0,.006Zm2.626,11.818a6.327,6.327,0,0,0,2.3.773,2.818,2.818,0,0,0-.242.445,5.664,5.664,0,0,1-2.063-1.218M304.444,41.7h0a.342.342,0,0,0,.242.1.344.344,0,0,1,.343.343v.343h-.886L302.254,40.6l-.559-2.235a.343.343,0,0,0-.416-.249.325.325,0,0,0-.062.022,2.511,2.511,0,0,1-1.521.2l-4.485-.815a.343.343,0,0,0-.386.229l-.311.932a1.558,1.558,0,0,1-1.479,1.066.345.345,0,0,0-.19.057l-2.056,1.374a.344.344,0,0,0-.094.476.335.335,0,0,0,.042.051.628.628,0,0,1,.082.786h-.867V40.945l2.6-1.953a.344.344,0,0,0,.134-.226l.37-2.591a2.239,2.239,0,0,1,2.2-1.912h5.31a.343.343,0,0,0,.274-.137l.189-.252,1.8.954-.2,1.384a2.509,2.509,0,0,1-.077.354.346.346,0,0,0-.009.15l.42,3.416a.342.342,0,0,0,.1.2Zm1.222-8.329a.342.342,0,0,1-.314.206h-2.037a.342.342,0,0,0-.339.294l-.033.234-1.489-.788.887-1.183a.342.342,0,0,0-.067-.479.407.407,0,0,0-.044-.028l-.122-.066-.01,0a1.192,1.192,0,0,1-.649-1.211l1.679,1.117a.338.338,0,0,0,.19.058,2.806,2.806,0,0,1,1.5.435l1.149.725Z" fill="#fff"/>
    </g>
  </g>
</svg>
