<svg xmlns="http://www.w3.org/2000/svg" xmlns:xlink="http://www.w3.org/1999/xlink" width="28" height="28" viewBox="0 0 28 28">
  <defs>
    <clipPath id="clip-path">
      <rect id="Rectangle_1688" data-name="Rectangle 1688" width="21.025" height="22.189" transform="translate(0 0)" fill="none"/>
    </clipPath>
  </defs>
  <g id="Groupe_898" data-name="Groupe 898" transform="translate(-5662 -2162)">
    <g id="Groupe_897" data-name="Groupe 897" transform="translate(5664 2164.983)">
      <g id="Groupe_896" data-name="Groupe 896" transform="translate(0 0)" clip-path="url(#clip-path)">
        <path id="Tracé_1226" data-name="Tracé 1226" d="M20.421.145A.375.375,0,0,0,19.98.029a6.9,6.9,0,0,1-2.714.619l-.031,0a3.409,3.409,0,0,0-4.287,2.445,3.685,3.685,0,0,0-.118.388,5.154,5.154,0,0,0-.055,2.148c.153,1.132.284,2.11-1.873,4.291a22.185,22.185,0,0,1-2.891,2.425C6.078,13.764,4.8,14.7,4.756,18.388a3.3,3.3,0,0,0,.179,1.054A4.3,4.3,0,0,1,1.6,18.781a2.929,2.929,0,0,1-.854-2.374.378.378,0,0,0-.368-.382H.376A.376.376,0,0,0,0,16.394a3.631,3.631,0,0,0,1.114,2.953,4.365,4.365,0,0,0,2.922.9,9.281,9.281,0,0,0,1.2-.087,4.8,4.8,0,0,0,1.986,1.988.367.367,0,0,0,.173.042h5.938a.375.375,0,0,0,.373-.381A1.638,1.638,0,0,0,12.544,20.4a9.472,9.472,0,0,0,1.491-.988,8.418,8.418,0,0,1,.118,2.357.375.375,0,0,0,.373.421h3.766a.376.376,0,0,0,.375-.375c0-1.254-1.267-1.738-2.152-1.855a23.159,23.159,0,0,1,.342-3.768A10.6,10.6,0,0,0,18.38,9.248a5.5,5.5,0,0,1,1.862-5.622A2.561,2.561,0,0,0,20.421.145Zm-.695,2.94A6.217,6.217,0,0,0,17.645,9.38,9.756,9.756,0,0,1,16.216,15.8a.36.36,0,0,0-.082.18,20.657,20.657,0,0,0-.322,4.4.374.374,0,0,0,.355.306c.016,0,1.318.06,1.669.759h-2.9a9,9,0,0,0-.317-2.833,6.353,6.353,0,0,0-.544-1.32.375.375,0,1,0-.657.364,5.457,5.457,0,0,1,.41.954,8.545,8.545,0,0,1-1.842,1.247,3.63,3.63,0,0,0-.366-3.013c-1.218-1.815-4.087-1.895-4.207-1.9a.374.374,0,1,0-.016.748c.027,0,2.6.075,3.6,1.566a3.364,3.364,0,0,1,.024,3.151.335.335,0,0,0-.022.08v0a.342.342,0,0,0,0,.071v0a.373.373,0,0,0,.024.12l.007.013s0,.007,0,.011.018.033.026.049l.007.011a.469.469,0,0,0,.042.051l0,0a.258.258,0,0,0,.047.036.09.09,0,0,0,.02.011.356.356,0,0,0,.042.022l.013.007a.009.009,0,0,1,.007,0,.371.371,0,0,0,.055.016l.036,0,.018,0a1.936,1.936,0,0,1,1.433.519H7.5A3.847,3.847,0,0,1,5.506,18.4c.04-3.313,1.074-4.072,2.949-5.452a23.32,23.32,0,0,0,2.98-2.5C13.851,8,13.682,6.746,13.518,5.53a6.933,6.933,0,0,1-.082-.87l1.3,2.048a.818.818,0,0,0,.626.382c.024,0,.049,0,.073,0a.815.815,0,0,0,.61-.273c.641-.71,1.882-2.618-.433-5.006a.375.375,0,1,0-.539.522c1.715,1.771,1.171,3.144.413,3.983a.071.071,0,0,1-.062.024.073.073,0,0,1-.055-.035L13.6,3.513c.018-.057.036-.115.058-.173C14.49.965,16.07,1.218,17.117,1.385l.031,0A6.768,6.768,0,0,0,19.982.837a1.755,1.755,0,0,1-.255,2.248Z" transform="translate(0 0)" fill="#103a3a"/>
      </g>
    </g>
    <g id="Ellipse_290" data-name="Ellipse 290" transform="translate(5662 2162)" fill="none" stroke="#1c393a" stroke-width="1">
      <circle cx="14" cy="14" r="14" stroke="none"/>
      <circle cx="14" cy="14" r="13.5" fill="none"/>
    </g>
    <path id="Tracé_1227" data-name="Tracé 1227" d="M5223.6,2161.7l20.556,16.5" transform="translate(443 5)" fill="none" stroke="#1c393a" stroke-width="1"/>
  </g>
</svg>
