<svg id="Groupe_893" data-name="Groupe 893" xmlns="http://www.w3.org/2000/svg" xmlns:xlink="http://www.w3.org/1999/xlink" width="20.793" height="19.475" viewBox="0 0 20.793 19.475">
  <defs>
    <clipPath id="clip-path">
      <rect id="Rectangle_1686" data-name="Rectangle 1686" width="20.793" height="19.475" fill="none"/>
    </clipPath>
  </defs>
  <g id="Groupe_892" data-name="Groupe 892" transform="translate(0 0)" clip-path="url(#clip-path)">
    <path id="Tracé_1208" data-name="Tracé 1208" d="M16.677,3.475l1.147-.917A.279.279,0,0,1,18,2.5h.02a.279.279,0,0,1,.279.279v.555a1.249,1.249,0,1,0,2.5,0V2.776A2.776,2.776,0,0,0,18.017,0H18a2.776,2.776,0,0,0-1.734.608L3.148,11.1h-1.9A1.249,1.249,0,0,0,0,12.349H0A1.249,1.249,0,0,0,1.248,13.6H2.883v.863a2.662,2.662,0,1,0,2.5,0V12.514l.231-.185H12.1a4.619,4.619,0,0,0,1.017-.113l2.194,3.324a2.662,2.662,0,1,0,2.339-1.389c-.087,0-.172,0-.257.012l-2.079-3.15a4.567,4.567,0,0,0,1.367-3.264V3.475Zm.97,11.507a1.831,1.831,0,1,0,1.83,1.83,1.831,1.831,0,0,0-1.83-1.83m-13.516,0a1.831,1.831,0,1,0,1.831,1.83,1.831,1.831,0,0,0-1.831-1.83m13.516.537a1.294,1.294,0,1,1-1.294,1.294,1.294,1.294,0,0,1,1.294-1.294m-13.516,0a1.294,1.294,0,1,1-1.294,1.294,1.294,1.294,0,0,1,1.294-1.294m13.516.832a.462.462,0,1,0,.462.462.462.462,0,0,0-.462-.462m-13.516,0a.462.462,0,1,0,.462.462.462.462,0,0,0-.462-.462m11.718-1.5-4.627-7.01.652-.522,4.668,7.072A2.67,2.67,0,0,0,15.849,14.849Zm-11.3-1.67v1a2.673,2.673,0,0,0-.832,0v-.592a1.244,1.244,0,0,0,.651-.267l.181-.145Zm-.961-.414a.415.415,0,0,0,.26-.091L17.3,1.909A1.113,1.113,0,0,1,18,1.666h.02a1.111,1.111,0,0,1,1.111,1.111v.556a.417.417,0,1,0,.834,0V2.777A1.945,1.945,0,0,0,18.017.832H18a1.943,1.943,0,0,0-1.215.426L3.44,11.933H1.248a.417.417,0,0,0-.416.416h0a.417.417,0,0,0,.416.416ZM6.649,11.5l3.92-3.136,2.047,3.1a3.737,3.737,0,0,1-.519.036Zm9.2-7.356V7.749a3.735,3.735,0,0,1-1,2.553L12.526,6.8l3.319-2.655Z" transform="translate(0 0)" fill="#103a3a" fill-rule="evenodd"/>
  </g>
</svg>
