<svg xmlns="http://www.w3.org/2000/svg" width="60" height="60" viewBox="0 0 60 60">
  <g id="Groupe_894" data-name="Groupe 894" transform="translate(-5146 -2562)">
    <g id="Groupe_891" data-name="Groupe 891">
      <g id="Rectangle_1695" data-name="Rectangle 1695" transform="translate(5146 2562)" fill="#103a3a" stroke="#1c393a" stroke-width="1">
        <rect width="60" height="60" rx="30" stroke="none"/>
        <rect x="0.5" y="0.5" width="59" height="59" rx="29.5" fill="none"/>
      </g>
      <g id="Groupe_890" data-name="Groupe 890" transform="translate(-2.048 1.299)">
        <path id="Tracé_1219" data-name="Tracé 1219" d="M116.1,7.3h.668a2,2,0,0,0,0-4.006H105.58a2.173,2.173,0,0,0-2.17,2.17V6.631a.668.668,0,0,0,.668.668h6.676V9.97h-1.335a.668.668,0,0,0-.668.668V14.02a5.348,5.348,0,0,0-4.674,5.3v21.7a2.34,2.34,0,0,0,2.337,2.337h14.021a2.34,2.34,0,0,0,2.337-2.337V19.32a5.349,5.349,0,0,0-4.674-5.3V10.637a.668.668,0,0,0-.668-.668H116.1Zm1.335-2a.668.668,0,0,1-.668.668H116.1V4.628h.668a.668.668,0,0,1,.668.668m-2.671,2h-2.671V4.628h2.671ZM104.745,5.964v-.5a.836.836,0,0,1,.835-.835h5.174V5.964Zm9.347,8.012h-1.338V11.305h1.335Zm-4.006-2.671h1.335v2.671h-1.335Zm11.35,12.018h-3.771a6.925,6.925,0,0,0-8.482,0h-3.771V20.652h16.024Zm0,14.689h-2.3L118.1,36.451v-1a13.658,13.658,0,0,0,.668-4.221v-.15a13.661,13.661,0,0,0-.186-2.249l-.491-2.944a.668.668,0,0,0-1.191-.293l-1.652,2.182a4.265,4.265,0,0,0-3.644,0l-1.645-2.183a.668.668,0,0,0-1.191.293l-.491,2.944a13.66,13.66,0,0,0-.186,2.249v.15a13.658,13.658,0,0,0,.668,4.221v1l-1.041,1.561h-2.3V24.658h4.006a.667.667,0,0,0,.427-.155,5.588,5.588,0,0,1,7.157,0,.667.667,0,0,0,.427.155h4.006ZM110.054,35.13a12.334,12.334,0,0,1-.633-3.9v-.15a12.318,12.318,0,0,1,.168-2.029l.235-1.414,1.067,1.41a.668.668,0,0,0,.9.153,2.936,2.936,0,0,1,3.265,0,.668.668,0,0,0,.9-.153l1.067-1.41.235,1.414a12.428,12.428,0,0,1,.168,2.029v.15a12.334,12.334,0,0,1-.633,3.9.657.657,0,0,0-.034.211v1.312a.671.671,0,0,0,.112.371l.637.956c-.134,0-7.154,0-8.18.007l.641-.962a.668.668,0,0,0,.112-.37V35.341a.685.685,0,0,0-.034-.211Zm10.383,6.888H106.414a1,1,0,0,1-1-1V39.347h16.024v1.669a1,1,0,0,1-1,1m-3.676-28.041h-1.335v-2.67h1.335Zm-4.674-5.341h2.671V9.97h-2.671Z" transform="translate(5064.315 2567.408)" fill="#fff"/>
        <path id="Tracé_1220" data-name="Tracé 1220" d="M112.757,31.312a.668.668,0,1,1-.668-.668.668.668,0,0,1,.668.668" transform="translate(5064.315 2567.408)" fill="#fff"/>
        <path id="Tracé_1221" data-name="Tracé 1221" d="M115.428,31.312a.668.668,0,1,1-.668-.668.668.668,0,0,1,.668.668" transform="translate(5064.315 2567.408)" fill="#fff"/>
        <path id="Tracé_1222" data-name="Tracé 1222" d="M112.372,34.034A1.74,1.74,0,0,0,113.4,33.7a1.745,1.745,0,0,0,1.027.331.513.513,0,1,0,.039-1.026h-.039a.723.723,0,0,1-.514-.213l-.06-.06a.513.513,0,1,0-.906,0l-.06.06a.723.723,0,0,1-.514.213.513.513,0,0,0,0,1.026Z" transform="translate(5064.315 2567.408)" fill="#fff"/>
        <path id="Tracé_1223" data-name="Tracé 1223" d="M114.259,35.02a1.881,1.881,0,0,1-1.677,0,.541.541,0,0,0-.486.966,2.97,2.97,0,0,0,2.644,0,.54.54,0,1,0-.485-.966Z" transform="translate(5064.315 2567.408)" fill="#fff"/>
        <path id="Tracé_1224" data-name="Tracé 1224" d="M98.13,12.687a4.006,4.006,0,1,0,4.615,3.96,2.5,2.5,0,0,0-.01-.274,3.338,3.338,0,1,0-4.6-3.686Z" transform="translate(5064.315 2567.408)" fill="#fff"/>
        <path id="Tracé_1225" data-name="Tracé 1225" d="M129.45,29.332a2.673,2.673,0,1,0-1.888-.783,2.673,2.673,0,0,0,1.888.783" transform="translate(5064.315 2567.408)" fill="#fff"/>
        <path id="Tracé_1226" data-name="Tracé 1226" d="M124.1,34.005a3.343,3.343,0,1,0,.979-2.36,3.342,3.342,0,0,0-.979,2.36" transform="translate(5064.315 2567.408)" fill="#fff"/>
        <path id="Tracé_1227" data-name="Tracé 1227" d="M98.814,19.374A2.564,2.564,0,1,0,97,18.623a2.563,2.563,0,0,0,1.81.751" transform="translate(5064.315 2567.408)" fill="#1d3437"/>
        <path id="Tracé_1228" data-name="Tracé 1228" d="M101.554,14.708a1.813,1.813,0,1,0-1.28-.531,1.813,1.813,0,0,0,1.28.531" transform="translate(5064.315 2567.408)" fill="#1d3437"/>
      </g>
    </g>
  </g>
</svg>
