<svg xmlns="http://www.w3.org/2000/svg" xmlns:xlink="http://www.w3.org/1999/xlink" width="58" height="46" viewBox="0 0 58 46">
  <defs>
    <clipPath id="clip-path">
      <rect id="Rectangle_1650" data-name="Rectangle 1650" width="48.748" height="33.909" fill="none"/>
    </clipPath>
  </defs>
  <g id="Groupe_882" data-name="Groupe 882" transform="translate(-5047 -2355)">
    <g id="Rectangle_1646" data-name="Rectangle 1646" transform="translate(5047 2355)" fill="#fff" stroke="#1c393a" stroke-width="1">
      <rect width="58" height="46" rx="15" stroke="none"/>
      <rect x="0.5" y="0.5" width="57" height="45" rx="14.5" fill="none"/>
    </g>
    <g id="Groupe_835" data-name="Groupe 835" transform="translate(5052.252 2359.046)">
      <g id="Groupe_834" data-name="Groupe 834" clip-path="url(#clip-path)">
        <path id="Tracé_1111" data-name="Tracé 1111" d="M24.365,163.6C13.129,163.6.01,162.283.01,158.55a.618.618,0,0,1,0-.219l.2-.6L4.517,145.22a.683.683,0,0,1,1.329.219c0,1.5,7.2,3.688,18.482,3.688a76.3,76.3,0,0,0,9.1-.519.683.683,0,0,1,.756.546l.583,3.05h0a1.138,1.138,0,0,0,2.258-.209.9.9,0,0,0,0-.155l-.464-3.059a.683.683,0,0,1,.537-.765c4.553-.91,5.745-2.094,5.754-2.577h0a.692.692,0,0,1,.574-.665.674.674,0,0,1,.756.446l4.552,13.111a.618.618,0,0,1,0,.219C48.72,162.283,35.6,163.6,24.365,163.6ZM1.385,158.632c.282,1.3,7.074,3.642,22.981,3.642s22.7-2.3,22.981-3.642l-.155-.464-3.833-11.127c-.965.856-2.731,1.584-5.354,2.167l.364,2.4a1.78,1.78,0,0,1,0,.383,2.5,2.5,0,0,1-4.971.464l-.464-2.422h0a77.647,77.647,0,0,1-8.595.455c-6.7,0-16.143-.91-18.992-3.451Z" transform="translate(0 -129.695)" fill="#1d3437"/>
        <path id="Tracé_1112" data-name="Tracé 1112" d="M202.652,245.006h-.783a3.5,3.5,0,0,1-2.813-1.22,1.82,1.82,0,0,1-.5-1.438l.391-1.976a3.378,3.378,0,0,1,6.628,0l.391,1.976a1.821,1.821,0,0,1-.5,1.438,3.5,3.5,0,0,1-2.813,1.22Zm-.4-5.982a2.021,2.021,0,0,0-1.967,1.657l-.391,1.966h0a2.022,2.022,0,0,0,1.976,1.029h.783a1.885,1.885,0,0,0,1.966-1.175l-.383-1.821a2.021,2.021,0,0,0-1.985-1.657Z" transform="translate(-177.887 -212.918)" fill="#1d3437"/>
        <path id="Tracé_1113" data-name="Tracé 1113" d="M167.8,237.431a2.067,2.067,0,1,1,1.461-.605,2.065,2.065,0,0,1-1.461.605m0-2.731a.7.7,0,1,0,.7.7.71.71,0,0,0-.7-.737Z" transform="translate(-148.486 -209.022)" fill="#1d3437"/>
        <path id="Tracé_1114" data-name="Tracé 1114" d="M196.148,209.018a2.067,2.067,0,0,1-1.466-3.524,2.113,2.113,0,0,1,2.923,0,2.062,2.062,0,0,1-1.457,3.524Zm0-2.731a.693.693,0,0,0-.492.2.7.7,0,1,0,.983,0,.72.72,0,0,0-.491-.228Z" transform="translate(-173.886 -183.585)" fill="#1d3437"/>
        <path id="Tracé_1115" data-name="Tracé 1115" d="M236.308,208.648a2.067,2.067,0,1,1,1.462-.606,2.066,2.066,0,0,1-1.462.606m0-2.731a.7.7,0,1,0,.7.692.692.692,0,0,0-.7-.719Z" transform="translate(-209.867 -183.233)" fill="#1d3437"/>
        <path id="Tracé_1116" data-name="Tracé 1116" d="M264.918,237.195a2.085,2.085,0,0,1-2.067-2.066,2.058,2.058,0,0,1,.61-1.457,2.1,2.1,0,0,1,2.914,0,2.058,2.058,0,0,1,.61,1.457,2.085,2.085,0,0,1-2.067,2.066Zm0-2.731a.667.667,0,0,0-.492.2.674.674,0,0,0-.209.492.665.665,0,0,0,.209.491.692.692,0,0,0,.984,0,.665.665,0,0,0,.209-.491.675.675,0,0,0-.209-.492.667.667,0,0,0-.492-.228Z" transform="translate(-235.5 -208.831)" fill="#1d3437"/>
        <path id="Tracé_1117" data-name="Tracé 1117" d="M72.331,24.8a2.513,2.513,0,0,1-2.422-2.04l-.464-2.422a77.636,77.636,0,0,1-8.6.455C52.874,20.8,41,19.45,41,15.745c-.747-4.152-.228-7.174,1.593-8.768C43.969,5.729,46,5.41,48.641,6.066c.783-1.475,3.269-5.581,6.9-6.027,2.185-.264,4.343.828,6.373,3.259,1.584-.646,6.619-2.422,9.779-.4a5.966,5.966,0,0,1,2.513,4.926c1.338-.246,3.933-.464,5.563,1.1,1.42,1.366,1.721,3.706.91,6.956-.109,1.53-2.194,2.731-6.21,3.642l.364,2.4h0a1.713,1.713,0,0,1,0,.382,2.5,2.5,0,0,1-2.5,2.495Zm-2.376-5.9a.683.683,0,0,1,.674.555l.583,3.05h0a1.138,1.138,0,0,0,2.258-.209.9.9,0,0,0,0-.155L73,19.086a.683.683,0,0,1,.537-.765c4.552-.91,5.745-2.094,5.754-2.577h0a1.372,1.372,0,0,1,0-.173c.728-2.731.565-4.689-.482-5.7-1.639-1.584-5.044-.583-5.071-.573a.692.692,0,0,1-.61-.109.673.673,0,0,1-.273-.546c0-2.267-.646-3.824-1.912-4.635-3.077-1.976-8.9.674-8.959.7a.673.673,0,0,1-.819-.191c-1.821-2.313-3.7-3.387-5.463-3.159-3.6.437-6.064,5.7-6.091,5.745a.673.673,0,0,1-.8.374c-2.422-.656-4.207-.492-5.308.51-1.384,1.256-1.821,3.961-1.156,7.594a.784.784,0,0,1,0,.209c.155,1.5,7.284,3.642,18.482,3.642a76.322,76.322,0,0,0,9.1-.519Z" transform="translate(-36.44 0)" fill="#1d3437"/>
        <path id="Tracé_1118" data-name="Tracé 1118" d="M411.9,146.582a.618.618,0,0,1-.219,0,.683.683,0,0,1-.428-.91l.046-.164a.683.683,0,0,1,1.293.437v.164A.682.682,0,0,1,411.9,146.582Z" transform="translate(-368.415 -129.972)" fill="#1d3437"/>
        <path id="Tracé_1119" data-name="Tracé 1119" d="M44.524,145.26a.692.692,0,0,1-.665-.537,1.941,1.941,0,0,1,0-.291.683.683,0,1,1,1.347-.164v.164h0a.683.683,0,0,1-.519.81Z" transform="translate(-39.28 -128.651)" fill="#1d3437"/>
      </g>
    </g>
  </g>
</svg>
