<svg xmlns="http://www.w3.org/2000/svg" width="60" height="60" viewBox="0 0 60 60">
  <g id="Groupe_893" data-name="Groupe 893" transform="translate(-5064 -2566)">
    <g id="Rectangle_1694" data-name="Rectangle 1694" transform="translate(5064 2566)" fill="#103a3a" stroke="#1c393a" stroke-width="1">
      <rect width="60" height="60" rx="30" stroke="none"/>
      <rect x="0.5" y="0.5" width="59" height="59" rx="29.5" fill="none"/>
    </g>
    <g id="Groupe_892" data-name="Groupe 892" transform="translate(0.401 2.892)">
      <path id="Tracé_1200" data-name="Tracé 1200" d="M29.649,42.6c-11.236,0-24.355-1.317-24.355-5.05a.62.62,0,0,1,0-.219l.2-.6L9.8,24.224a.683.683,0,0,1,1.329.219c0,1.5,7.2,3.688,18.482,3.688a76.44,76.44,0,0,0,9.1-.519.684.684,0,0,1,.756.546l.583,3.05A1.138,1.138,0,0,0,42.309,31a1,1,0,0,0,0-.155l-.464-3.059a.682.682,0,0,1,.537-.765c4.553-.91,5.745-2.094,5.754-2.577a.692.692,0,0,1,.574-.665.674.674,0,0,1,.756.446l4.552,13.111a.62.62,0,0,1,0,.219C54,41.287,40.884,42.6,29.649,42.6" transform="translate(5064.315 2567.408)" fill="#fff"/>
      <path id="Tracé_1201" data-name="Tracé 1201" d="M29.649,42.6c-11.236,0-24.355-1.317-24.355-5.05a.62.62,0,0,1,0-.219l.2-.6L9.8,24.224a.683.683,0,0,1,1.329.219c0,1.5,7.2,3.688,18.482,3.688a76.44,76.44,0,0,0,9.1-.519.684.684,0,0,1,.756.546l.583,3.05A1.138,1.138,0,0,0,42.309,31a1,1,0,0,0,0-.155l-.464-3.059a.682.682,0,0,1,.537-.765c4.553-.91,5.745-2.094,5.754-2.577a.692.692,0,0,1,.574-.665.674.674,0,0,1,.756.446l4.552,13.111a.62.62,0,0,1,0,.219C54,41.287,40.884,42.6,29.649,42.6Z" transform="translate(5064.315 2567.408)" fill="none" stroke="#1d3437" stroke-miterlimit="10" stroke-width="1"/>
      <path id="Tracé_1202" data-name="Tracé 1202" d="M30.093,41.788h-.706a3.158,3.158,0,0,1-2.537-1.1,1.646,1.646,0,0,1-.451-1.3l.353-1.782a3.046,3.046,0,0,1,5.977,0l.352,1.782a1.642,1.642,0,0,1-.45,1.3,3.158,3.158,0,0,1-2.537,1.1Z" transform="translate(5064.315 2567.408)" fill="#1d3437"/>
      <path id="Tracé_1203" data-name="Tracé 1203" d="M24.3,37.5a1.763,1.763,0,1,1,1.247-.516A1.764,1.764,0,0,1,24.3,37.5" transform="translate(5064.315 2567.408)" fill="#1d3437"/>
      <path id="Tracé_1204" data-name="Tracé 1204" d="M27.24,34.525a1.761,1.761,0,0,1-1.249-3,1.8,1.8,0,0,1,2.491,0,1.758,1.758,0,0,1-1.242,3" transform="translate(5064.315 2567.408)" fill="#1d3437"/>
      <path id="Tracé_1205" data-name="Tracé 1205" d="M32.052,34.46a1.741,1.741,0,1,1,1.23-.51,1.74,1.74,0,0,1-1.23.51" transform="translate(5064.315 2567.408)" fill="#1d3437"/>
      <path id="Tracé_1206" data-name="Tracé 1206" d="M35.16,37.153a1.623,1.623,0,0,1-1.609-1.609,1.6,1.6,0,0,1,.475-1.134,1.634,1.634,0,0,1,2.268,0,1.6,1.6,0,0,1,.475,1.134,1.623,1.623,0,0,1-1.609,1.609" transform="translate(5064.315 2567.408)" fill="#1d3437"/>
      <path id="Tracé_1207" data-name="Tracé 1207" d="M41.175,33.5a2.513,2.513,0,0,1-2.422-2.04l-.464-2.422a77.45,77.45,0,0,1-8.6.455c-7.971.007-19.845-1.343-19.845-5.048-.747-4.152-.228-7.174,1.593-8.768,1.376-1.248,3.407-1.567,6.048-.911.783-1.475,3.269-5.581,6.9-6.027,2.185-.264,4.343.828,6.373,3.259,1.584-.646,6.619-2.422,9.779-.4a5.965,5.965,0,0,1,2.513,4.926c1.338-.246,3.933-.464,5.563,1.1,1.42,1.366,1.721,3.706.91,6.956-.109,1.53-2.194,2.731-6.21,3.642l.364,2.4a1.742,1.742,0,0,1,0,.382,2.5,2.5,0,0,1-2.5,2.5Z" transform="translate(5064.315 2567.408)" fill="#fff"/>
      <path id="Tracé_1208" data-name="Tracé 1208" d="M41.175,33.5a2.513,2.513,0,0,1-2.422-2.04l-.464-2.422a77.45,77.45,0,0,1-8.6.455c-7.971.007-19.845-1.343-19.845-5.048-.747-4.152-.228-7.174,1.593-8.768,1.376-1.248,3.407-1.567,6.048-.911.783-1.475,3.269-5.581,6.9-6.027,2.185-.264,4.343.828,6.373,3.259,1.584-.646,6.619-2.422,9.779-.4a5.965,5.965,0,0,1,2.513,4.926c1.338-.246,3.933-.464,5.563,1.1,1.42,1.366,1.721,3.706.91,6.956-.109,1.53-2.194,2.731-6.21,3.642l.364,2.4a1.742,1.742,0,0,1,0,.382,2.5,2.5,0,0,1-2.5,2.5Z" transform="translate(5064.315 2567.408)" fill="none" stroke="#1d3437" stroke-miterlimit="10" stroke-width="1"/>
    </g>
  </g>
</svg>
