<svg xmlns="http://www.w3.org/2000/svg" width="60" height="60" viewBox="0 0 60 60">
  <g id="Groupe_899" data-name="Groupe 899" transform="translate(-5232 -2615)">
    <g id="Groupe_898" data-name="Groupe 898">
      <g id="Rectangle_1698" data-name="Rectangle 1698" transform="translate(5232 2615)" fill="#103a3a" stroke="#1c393a" stroke-width="1">
        <rect width="60" height="60" rx="30" stroke="none"/>
        <rect x="0.5" y="0.5" width="59" height="59" rx="29.5" fill="none"/>
      </g>
      <g id="Groupe_896" data-name="Groupe 896" transform="translate(5232.726 2622.333)">
        <g id="Groupe_897" data-name="Groupe 897">
          <path id="Tracé_1230" data-name="Tracé 1230" d="M29.544,19.776V18.41h.424a1.25,1.25,0,0,0,1.248-1.248V12.821a1.25,1.25,0,0,0-1.248-1.248h-16.4a1.251,1.251,0,0,0-1.251,1.248v4.341a1.251,1.251,0,0,0,1.251,1.248h.422v1.366a3.363,3.363,0,0,0-2.714,3.3v16.9a3.361,3.361,0,0,0,3.358,3.358H28.9a3.361,3.361,0,0,0,3.358-3.358v-16.9a3.362,3.362,0,0,0-2.716-3.294Zm1.4,20.194A2.05,2.05,0,0,1,28.9,42.016H14.633a2.05,2.05,0,0,1-2.046-2.046V23.07a2.051,2.051,0,0,1,2.056-2.046h0a.656.656,0,0,0,.656-.656V18.409H28.233v1.959a.668.668,0,0,0,.67.656,2.05,2.05,0,0,1,2.046,2.046Z" fill="#fff"/>
          <path id="Tracé_1231" data-name="Tracé 1231" d="M24.862,32.618a3.153,3.153,0,0,0-6.186,0A2.832,2.832,0,0,0,19.8,38.05H23.74a2.832,2.832,0,0,0,1.122-5.432" fill="#fff"/>
          <path id="Tracé_1232" data-name="Tracé 1232" d="M23.91,29.433c.984,0,1.756-1.013,1.756-2.308S24.9,24.82,23.91,24.82s-1.758,1.013-1.758,2.305.772,2.308,1.758,2.308" fill="#fff"/>
          <path id="Tracé_1233" data-name="Tracé 1233" d="M15.885,28.379c-.985,0-1.758,1.013-1.758,2.308s.772,2.308,1.758,2.308,1.756-1.013,1.756-2.308-.771-2.308-1.756-2.308" fill="#fff"/>
          <path id="Tracé_1234" data-name="Tracé 1234" d="M27.656,28.379c-.986,0-1.759,1.013-1.759,2.308s.773,2.308,1.759,2.308,1.755-1.013,1.755-2.308-.771-2.308-1.755-2.308" fill="#fff"/>
          <path id="Tracé_1235" data-name="Tracé 1235" d="M19.628,29.433c.986,0,1.758-1.013,1.758-2.308s-.773-2.305-1.758-2.305-1.756,1.013-1.756,2.305.771,2.308,1.756,2.308" fill="#fff"/>
          <path id="Tracé_1236" data-name="Tracé 1236" d="M44.576,30.867h-.41V14.347a1.71,1.71,0,0,0-1.5-1.691V10.007a.657.657,0,0,0-.657-.656H40.861V3.323a.656.656,0,1,0-1.312,0V9.351H38.4a.656.656,0,0,0-.655.656v2.648a1.71,1.71,0,0,0-1.5,1.691V30.867h-.41a2.15,2.15,0,1,0,0,4.3H39.55v3.866H38.076a2.15,2.15,0,1,0,0,4.3h4.252a2.15,2.15,0,1,0,0-4.3H40.859V35.167h3.717a2.15,2.15,0,1,0,0-4.3Zm-7.023-1.682H39.3a.656.656,0,0,0,0-1.312H37.553V25.217H39.3a.656.656,0,0,0,0-1.312H37.553V21.249H39.3a.656.656,0,0,0,0-1.312H37.553V17.283H39.3a.656.656,0,0,0,0-1.312H37.553V14.347a.4.4,0,0,1,.4-.4h4.5a.406.406,0,0,1,.4.4v16.52h-5.3Z" fill="#fff"/>
        </g>
      </g>
    </g>
  </g>
</svg>
