<svg xmlns="http://www.w3.org/2000/svg" xmlns:xlink="http://www.w3.org/1999/xlink" width="58" height="46" viewBox="0 0 58 46">
  <defs>
    <clipPath id="clip-path">
      <rect id="Rectangle_1651" data-name="Rectangle 1651" width="38" height="40" transform="translate(-0.149 -0.046)" fill="none"/>
    </clipPath>
  </defs>
  <g id="Groupe_883" data-name="Groupe 883" transform="translate(-5133 -2355)">
    <g id="Rectangle_1647" data-name="Rectangle 1647" transform="translate(5133 2355)" fill="#fff" stroke="#1c393a" stroke-width="1">
      <rect width="58" height="46" rx="15" stroke="none"/>
      <rect x="0.5" y="0.5" width="57" height="45" rx="14.5" fill="none"/>
    </g>
    <g id="Groupe_837" data-name="Groupe 837" transform="translate(5143.876 2358.923)">
      <g id="Groupe_836" data-name="Groupe 836" transform="translate(0.272 0.123)" clip-path="url(#clip-path)">
        <path id="Tracé_1120" data-name="Tracé 1120" d="M126.442,4.006h.668a2,2,0,1,0,0-4.006H115.926a2.173,2.173,0,0,0-2.17,2.17V3.338a.668.668,0,0,0,.668.668H121.1V6.677h-1.335a.668.668,0,0,0-.668.668v3.382a5.348,5.348,0,0,0-4.674,5.3v21.7a2.34,2.34,0,0,0,2.337,2.337h14.021a2.34,2.34,0,0,0,2.337-2.337v-21.7a5.348,5.348,0,0,0-4.674-5.3V7.344a.668.668,0,0,0-.668-.668h-1.335Zm1.335-2a.668.668,0,0,1-.668.668h-.668V1.335h.668a.668.668,0,0,1,.668.668m-2.671,2h-2.671V1.335h2.671ZM115.091,2.671v-.5a.836.836,0,0,1,.835-.835H121.1V2.671Zm9.347,8.012H123.1V8.012h1.335Zm-4.006-2.671h1.335v2.671h-1.335Zm11.35,12.018h-3.771a6.924,6.924,0,0,0-8.482,0h-3.771V17.359h16.024Zm0,14.689h-2.3l-1.041-1.561v-1a13.65,13.65,0,0,0,.668-4.221v-.15a13.732,13.732,0,0,0-.186-2.249l-.491-2.944h0a.668.668,0,0,0-1.191-.293l-1.652,2.182a4.263,4.263,0,0,0-3.644,0L120.3,22.3a.668.668,0,0,0-1.191.293l-.491,2.944h0a13.722,13.722,0,0,0-.186,2.249v.15a13.651,13.651,0,0,0,.668,4.221v1l-1.041,1.561h-2.3V21.365h4.006a.668.668,0,0,0,.427-.155,5.589,5.589,0,0,1,7.157,0,.668.668,0,0,0,.427.155h4.006ZM120.4,31.837a12.325,12.325,0,0,1-.633-3.9v-.15a12.411,12.411,0,0,1,.168-2.029l.235-1.414,1.067,1.41h0a.668.668,0,0,0,.9.153,2.935,2.935,0,0,1,3.265,0,.668.668,0,0,0,.9-.153l1.067-1.41.235,1.414h0a12.4,12.4,0,0,1,.168,2.029v.15a12.321,12.321,0,0,1-.633,3.9.67.67,0,0,0-.034.211V33.36a.668.668,0,0,0,.112.371l.637.956c-.134,0-7.154,0-8.18.007l.641-.962h0a.668.668,0,0,0,.112-.37V32.048a.67.67,0,0,0-.034-.211Zm10.383,6.888H116.76a1,1,0,0,1-1-1V36.054h16.024v1.669a1,1,0,0,1-1,1m1-22.7H115.758a4.011,4.011,0,0,1,4.006-4.006h8.012a4.011,4.011,0,0,1,4.006,4.006m-4.674-5.341h-1.335V8.012h1.335Zm-4.674-5.341h2.671V6.677h-2.671Z" transform="translate(-105.121 -0.037)" fill="#1d3437"/>
        <path id="Tracé_1121" data-name="Tracé 1121" d="M220.089,359.108a.668.668,0,1,1-.668-.668.668.668,0,0,1,.668.668" transform="translate(-202.107 -331.126)" fill="#1d3437"/>
        <path id="Tracé_1122" data-name="Tracé 1122" d="M255.089,359.108a.668.668,0,1,1-.668-.668.668.668,0,0,1,.668.668" transform="translate(-234.436 -331.126)" fill="#1d3437"/>
        <path id="Tracé_1123" data-name="Tracé 1123" d="M219.422,378.607a2.262,2.262,0,0,0,1.335-.431,2.262,2.262,0,0,0,1.335.431.668.668,0,1,0,0-1.335.937.937,0,0,1-.668-.277l-.078-.078a.668.668,0,1,0-1.179,0l-.078.078a.938.938,0,0,1-.668.277.668.668,0,0,0,0,1.335Z" transform="translate(-202.107 -347.287)" fill="#1d3437"/>
        <path id="Tracé_1124" data-name="Tracé 1124" d="M221.741,419.728a2.329,2.329,0,0,1-2.073,0,.668.668,0,1,0-.6,1.194,3.672,3.672,0,0,0,3.268,0,.668.668,0,1,0-.6-1.194Z" transform="translate(-202.054 -387.671)" fill="#1d3437"/>
        <path id="Tracé_1125" data-name="Tracé 1125" d="M3.4,90.224a4.006,4.006,0,1,0,4.615,3.96c0-.092,0-.183-.01-.274a3.338,3.338,0,1,0-4.6-3.686Zm.609,6.631a2.673,2.673,0,1,1,1.888-.783,2.672,2.672,0,0,1-1.888.783M8.68,90.846a2,2,0,0,1-1,1.736,4.019,4.019,0,0,0-2.913-2.331,2,2,0,0,1,3.916.595Z" transform="translate(-0.045 -80.867)" fill="#1d3437"/>
        <path id="Tracé_1126" data-name="Tracé 1126" d="M422.675,276.591a2.673,2.673,0,1,0-1.888-.783,2.672,2.672,0,0,0,1.888.783m0-4.006a1.337,1.337,0,1,1-.944.392A1.336,1.336,0,0,1,422.675,272.585Z" transform="translate(-388 -250.589)" fill="#1d3437"/>
        <path id="Tracé_1127" data-name="Tracé 1127" d="M385,362.088a3.342,3.342,0,1,0,.979-2.36,3.34,3.34,0,0,0-.979,2.36m3.338-2a2.006,2.006,0,1,1-1.415.587,2,2,0,0,1,1.415-.587Z" transform="translate(-355.671 -331.413)" fill="#1d3437"/>
      </g>
    </g>
  </g>
</svg>
