<svg xmlns="http://www.w3.org/2000/svg" xmlns:xlink="http://www.w3.org/1999/xlink" width="58" height="46" viewBox="0 0 58 46">
  <defs>
    <clipPath id="clip-path">
      <rect id="Rectangle_1652" data-name="Rectangle 1652" width="35.449" height="40.662" fill="none"/>
    </clipPath>
  </defs>
  <g id="Groupe_884" data-name="Groupe 884" transform="translate(-5219 -2355)">
    <g id="Rectangle_1648" data-name="Rectangle 1648" transform="translate(5219 2355)" fill="#fff" stroke="#1c393a" stroke-width="1">
      <rect width="58" height="46" rx="15" stroke="none"/>
      <rect x="0.5" y="0.5" width="57" height="45" rx="14.5" fill="none"/>
    </g>
    <g id="Groupe_839" data-name="Groupe 839" transform="translate(5231.107 2357.018)">
      <g id="Groupe_838" data-name="Groupe 838" clip-path="url(#clip-path)">
        <path id="Tracé_1128" data-name="Tracé 1128" d="M18.27,127.03v-1.366h.424a1.25,1.25,0,0,0,1.248-1.248v-4.341a1.25,1.25,0,0,0-1.248-1.248H2.292a1.251,1.251,0,0,0-1.251,1.248v4.341a1.251,1.251,0,0,0,1.251,1.248h.422v1.366A3.363,3.363,0,0,0,0,130.326v16.9a3.362,3.362,0,0,0,3.358,3.358H17.627a3.362,3.362,0,0,0,3.358-3.358v-16.9a3.363,3.363,0,0,0-2.716-3.294ZM2.354,120.138H18.63v4.214H2.354Zm17.321,27.086a2.049,2.049,0,0,1-2.046,2.046H3.359a2.049,2.049,0,0,1-2.046-2.046v-16.9a2.051,2.051,0,0,1,2.058-2.046.656.656,0,0,0,.656-.656v-1.959H16.959v1.959a.668.668,0,0,0,.67.656,2.049,2.049,0,0,1,2.046,2.046v16.9Z" transform="translate(0 -109.921)" fill="#1d3437"/>
        <path id="Tracé_1129" data-name="Tracé 1129" d="M83.832,368.239a3.153,3.153,0,0,0-6.186,0,2.832,2.832,0,0,0,1.123,5.432H82.71a2.832,2.832,0,0,0,1.122-5.432m-1.123,4.121H78.768a1.52,1.52,0,0,1-.365-3,.655.655,0,0,0,.5-.6,1.841,1.841,0,0,1,3.677,0,.656.656,0,0,0,.5.6,1.521,1.521,0,0,1-.364,3" transform="translate(-70.244 -338.288)" fill="#1d3437"/>
        <path id="Tracé_1130" data-name="Tracé 1130" d="M146.889,300.178c.984,0,1.756-1.013,1.756-2.308s-.771-2.305-1.756-2.305-1.758,1.013-1.758,2.305.772,2.308,1.758,2.308m0-3.3c.129,0,.444.348.444.994s-.315,1-.444,1-.446-.349-.446-1,.316-.994.446-.994" transform="translate(-134.253 -273.412)" fill="#1d3437"/>
        <path id="Tracé_1131" data-name="Tracé 1131" d="M39.819,343.046c-.985,0-1.758,1.013-1.758,2.308s.772,2.308,1.758,2.308,1.756-1.013,1.756-2.308-.771-2.308-1.756-2.308m0,3.3c-.153,0-.446-.388-.446-1s.292-1,.446-1c.129,0,.444.349.444,1s-.315,1-.444,1" transform="translate(-35.208 -317.334)" fill="#1d3437"/>
        <path id="Tracé_1132" data-name="Tracé 1132" d="M196.861,343.046c-.986,0-1.758,1.013-1.758,2.308s.773,2.308,1.758,2.308,1.756-1.013,1.756-2.308-.771-2.308-1.756-2.308m0,3.3c-.13,0-.446-.349-.446-1s.317-1,.446-1,.444.349.444,1-.315,1-.444,1" transform="translate(-180.48 -317.334)" fill="#1d3437"/>
        <path id="Tracé_1133" data-name="Tracé 1133" d="M89.784,300.178c.986,0,1.758-1.013,1.758-2.308s-.773-2.305-1.758-2.305-1.756,1.013-1.756,2.305.771,2.308,1.756,2.308m0-3.3c.13,0,.446.348.446.994s-.317,1-.446,1-.444-.349-.444-1,.315-.994.444-.994" transform="translate(-81.43 -273.412)" fill="#1d3437"/>
        <path id="Tracé_1134" data-name="Tracé 1134" d="M309.847,28.2h-.41V11.68a1.709,1.709,0,0,0-1.5-1.691V7.34a.656.656,0,0,0-.656-.656h-1.149V.656a.656.656,0,1,0-1.312,0V6.684h-1.15a.656.656,0,0,0-.656.656V9.988a1.71,1.71,0,0,0-1.5,1.691V28.2h-.41a2.148,2.148,0,0,0,0,4.3h3.718v3.866h-1.474a2.149,2.149,0,0,0,0,4.3H307.6a2.149,2.149,0,0,0,0-4.3H306.13V32.5h3.717a2.148,2.148,0,1,0,0-4.3Zm-1.408,10.313a.838.838,0,0,1-.837.836h-4.257a.837.837,0,0,1,0-1.675H307.6a.838.838,0,0,1,.837.839M306.624,9.967h-2.3V8h2.3Zm-3.8,16.551h1.751a.656.656,0,1,0,0-1.312h-1.751V22.55h1.751a.656.656,0,1,0,0-1.312h-1.751V18.582h1.751a.656.656,0,1,0,0-1.312h-1.751V14.616h1.751a.656.656,0,1,0,0-1.312h-1.751V11.68a.406.406,0,0,1,.4-.4h4.5a.406.406,0,0,1,.4.4V28.2h-5.3Zm7.024,4.668H301.1a.836.836,0,0,1,0-1.673h8.746a.836.836,0,0,1,0,1.673Z" transform="translate(-276.546)" fill="#1d3437"/>
      </g>
    </g>
  </g>
</svg>
