<svg xmlns="http://www.w3.org/2000/svg" xmlns:xlink="http://www.w3.org/1999/xlink" width="58" height="46" viewBox="0 0 58 46">
  <defs>
    <clipPath id="clip-path">
      <rect id="Rectangle_1653" data-name="Rectangle 1653" width="41.113" height="38.694" fill="none"/>
    </clipPath>
  </defs>
  <g id="Groupe_885" data-name="Groupe 885" transform="translate(-5305 -2355)">
    <g id="Rectangle_1649" data-name="Rectangle 1649" transform="translate(5305 2355)" fill="#fff" stroke="#1c393a" stroke-width="1">
      <rect width="58" height="46" rx="15" stroke="none"/>
      <rect x="0.5" y="0.5" width="57" height="45" rx="14.5" fill="none"/>
    </g>
    <g id="Groupe_841" data-name="Groupe 841" transform="translate(5315.887 2359.653)">
      <g id="Groupe_840" data-name="Groupe 840" clip-path="url(#clip-path)">
        <path id="Tracé_1135" data-name="Tracé 1135" d="M40.954,27.782l-1.4-.882a3.5,3.5,0,0,0-1.763-.54l-1.972-1.315a.343.343,0,0,0-.5.132,1.876,1.876,0,0,0,.608,2.379l-.719.958h0A5.4,5.4,0,0,1,33.9,27.338a7.4,7.4,0,0,1-.836-1.309,8.1,8.1,0,0,0-3.942-3.767l-.889-.4h0a7.367,7.367,0,0,1-3.771-3.8l-.5-1.154-.01-.021h0a1.52,1.52,0,0,0-2.122-.6l-4.719-3.154-.744-5.205a2.488,2.488,0,0,0-2.221-2.12A.342.342,0,0,0,14.05,5.8h-.008V5.739a2.666,2.666,0,0,0-.786-1.9,2,2,0,0,1-.585-1.412V2.4A2.4,2.4,0,0,0,9.878.033,3.856,3.856,0,0,0,7.1,2.039,2.717,2.717,0,0,1,5.373,3.4l-.336.087A4.188,4.188,0,0,0,3.118,4.585l-.249.249h0a1.923,1.923,0,0,1-.751.464A2.609,2.609,0,0,0,.335,7.773v3.85a.342.342,0,0,0,.343.343H2.4l.006,2.819a2.915,2.915,0,0,0,.707,1.9l.6.693h0A28.063,28.063,0,0,1,1.75,26.182l-.705,1.763a.343.343,0,0,0,.412.457L3,27.962H3a7.672,7.672,0,0,1,.864-.193L1.031,33.3l-.93.93a.343.343,0,0,0,0,.485l3.877,3.877a.343.343,0,0,0,.578-.309l-.46-2.3,4.031-7.7h0a7.62,7.62,0,0,1,.806.4,8.4,8.4,0,0,0,3.053,1.031v8.641a.343.343,0,0,0,.343.343h5.483a.343.343,0,0,0,.19-.628L16.1,36.8V29.785h.343a.343.343,0,0,0,.343-.343,27.154,27.154,0,0,0-3.34-13.027l-.41-.748.342-2.734.17,1.1a2.929,2.929,0,0,0,1.189,1.926L20.3,19.92l.01.009.038.027h0a1.029,1.029,0,0,0,1.437-.246l1.049-1.489a1.028,1.028,0,0,0-.27-1.448l-.011-.007a.813.813,0,0,1,.083,0h0a.82.82,0,0,1,.7.437l.5,1.142a8.052,8.052,0,0,0,4.121,4.151l.889.395a7.4,7.4,0,0,1,3.607,3.446,8.1,8.1,0,0,0,.914,1.43,6.068,6.068,0,0,0,1.435,1.3l-.027.037H29.635a2.905,2.905,0,0,0-1.859.677,5.673,5.673,0,0,1-3.149-1.134L23.5,27.8a.343.343,0,0,0-.5.45l.293.488h0a6.357,6.357,0,0,0,3.473,2.779c0,.029-.01.057-.014.085l-.35,2.45-2.628,1.971a.342.342,0,0,0-.137.274v2.056a.343.343,0,0,0,.343.343H25.35a.342.342,0,0,0,.242-.1,1.314,1.314,0,0,0,.241-1.524l1.68-1.12a2.229,2.229,0,0,0,.235-.025v.028a.344.344,0,0,0,.045.17l1.371,2.4a.342.342,0,0,0,.3.173h1.371a.343.343,0,0,0,.343-.343v-.685a1.027,1.027,0,0,0-.8-1l-.5-1a2.7,2.7,0,0,0,.617-1.711V33.9l3.454.628h0a3.211,3.211,0,0,0,.573.051c.028,0,.056,0,.084,0v.163l-1.9,1.269a.342.342,0,0,0-.153.285v2.056a.343.343,0,0,0,.343.343H34.26a.342.342,0,0,0,.242-.1,1.311,1.311,0,0,0,.242-1.524l1.21-.807.029.116h0a.347.347,0,0,0,.09.159l2.056,2.056a.343.343,0,0,0,.242.1h1.371a.343.343,0,0,0,.343-.343v-.685a1.029,1.029,0,0,0-.875-1.017l-1.2-1.2-.4-3.242a3.208,3.208,0,0,0,.078-.38l.292-2.045h1.739a1.027,1.027,0,0,0,.942-.616l.42-.96A.342.342,0,0,0,40.954,27.782ZM13.212,9.945a.342.342,0,0,0-.187.264l-.648,5.183H7.206L6.169,14.234V7.686a1.88,1.88,0,0,0-.434-1.2H8.559v.343a1.028,1.028,0,0,0,2.056,0V6.483H13.77l.33,1.649h0a1.66,1.66,0,0,1-.887,1.814ZM10.319,4.778l-.015,0a1.083,1.083,0,0,1-.181-.034A.343.343,0,0,0,9.93,5.4V6.825a.343.343,0,1,1-.685,0V3.842A.342.342,0,0,0,8.9,3.5a.343.343,0,1,1,.256-.57.345.345,0,0,0,.256.115h0a.349.349,0,0,0,.057-.005,1.343,1.343,0,0,0,1.084-.94.671.671,0,0,1,.4.614V4.271a.515.515,0,0,1-.514.514A1.065,1.065,0,0,1,10.319,4.778Zm-7.226,10L3.077,7.688a1.2,1.2,0,1,1,2.406,0v6.679a.344.344,0,0,0,.087.229l4.354,4.866a.343.343,0,0,0,.377.092l.758-.286h0a.211.211,0,0,1-.071.231l-.283.221a.342.342,0,0,0-.053.489l.338.408a.342.342,0,0,1-.022.461L9.533,22.51a.344.344,0,0,1-.255.1.339.339,0,0,1-.247-.119l-5.4-6.259a2.227,2.227,0,0,1-.541-1.45Zm.555,20.575L1.731,33.44l2.945-5.761c.146-.008.291-.013.436-.013a7.7,7.7,0,0,1,2.368.374Zm11.764,1.281H12.671V29.773c.141.007.282.012.423.012h2.318Zm-1.19-22.712-.537-3.46A2.347,2.347,0,0,0,14.771,8l-.283-1.417h0a1.806,1.806,0,0,1,1.2,1.448l.766,5.357h0a.343.343,0,0,0,.149.237l4.428,2.959h0a1.216,1.216,0,0,0-.478.518l-.63,1.309a1.221,1.221,0,0,0-.1.327L15.132,15.4a2.239,2.239,0,0,1-.909-1.473Zm8.052,3.9-1.049,1.489a.343.343,0,0,1-.48.081l-.038-.027a.532.532,0,0,1-.171-.665l.63-1.309h0a.525.525,0,0,1,.34-.283.536.536,0,0,1,.143-.02.527.527,0,0,1,.294.09l.24.16h0a.343.343,0,0,1,.09.482ZM24.9,29.64a6.333,6.333,0,0,0,2.305.773,2.894,2.894,0,0,0-.242.445A5.67,5.67,0,0,1,24.9,29.64Zm13.916,7.584h0a.343.343,0,0,0,.242.1.343.343,0,0,1,.343.343v.343h-.886l-1.889-1.889-.559-2.235h0a.343.343,0,0,0-.478-.227,2.5,2.5,0,0,1-1.07.239,2.533,2.533,0,0,1-.451-.041l-4.485-.815a.343.343,0,0,0-.386.229l-.311.932a1.558,1.558,0,0,1-1.479,1.066.342.342,0,0,0-.19.057L25.161,36.7a.343.343,0,0,0-.052.527.628.628,0,0,1,.082.786h-.867V36.467l2.6-1.953a.343.343,0,0,0,.134-.226l.37-2.591h0a2.239,2.239,0,0,1,2.205-1.912h5.31a.343.343,0,0,0,.274-.137l.189-.252,1.8.954-.2,1.384h0a2.5,2.5,0,0,1-.077.354.343.343,0,0,0-.009.15l.42,3.416a.343.343,0,0,0,.1.2Zm1.222-8.329a.343.343,0,0,1-.314.206H37.687a.343.343,0,0,0-.339.294l-.033.234-1.489-.788.887-1.183a.342.342,0,0,0-.111-.507l-.122-.066-.01-.005a1.192,1.192,0,0,1-.649-1.211L37.5,26.986a.342.342,0,0,0,.19.058,2.811,2.811,0,0,1,1.5.435l1.149.725Z" transform="translate(0 0)" fill="#1d3437"/>
      </g>
    </g>
  </g>
</svg>
